<svg preserveAspectRatio="none" overflow="visible" style="display: block;" width="1182" height="105" viewBox="0 0 1182 105" fill="none" xmlns="http://www.w3.org/2000/svg">
<g id="Rectangle 46" filter="url(#filter0_dd_0_18)">
<path d="M4 15.45C4 15.0322 4 14.8233 4.00416 14.6466C4.19287 6.63927 10.6393 0.192867 18.6466 0.00416355C18.8233 0 19.0322 0 19.45 0H1157.55C1157.97 0 1158.18 0 1158.35 0.00416355C1166.36 0.192867 1172.81 6.63927 1173 14.6466C1173 14.8233 1173 15.0322 1173 15.45V81.55C1173 81.9678 1173 82.1767 1173 82.3534C1172.81 90.3607 1166.36 96.8071 1158.35 96.9958C1158.18 97 1157.97 97 1157.55 97H19.4499C19.0322 97 18.8233 97 18.6466 96.9958C10.6393 96.8071 4.19287 90.3607 4.00416 82.3534C4 82.1767 4 81.9678 4 81.55V15.45Z" fill="#334329"/>
</g>
<defs>
<filter id="filter0_dd_0_18" x="0" y="0" width="1182" height="105" filterUnits="userSpaceOnUse" color-interpolation-filters="sRGB">
<feFlood flood-opacity="0" result="BackgroundImageFix"/>
<feColorMatrix in="SourceAlpha" type="matrix" values="0 0 0 0 0 0 0 0 0 0 0 0 0 0 0 0 0 0 127 0" result="hardAlpha"/>
<feOffset dy="4"/>
<feGaussianBlur stdDeviation="2"/>
<feComposite in2="hardAlpha" operator="out"/>
<feColorMatrix type="matrix" values="0 0 0 0 0 0 0 0 0 0 0 0 0 0 0 0 0 0 0.3 0"/>
<feBlend mode="normal" in2="BackgroundImageFix" result="effect1_dropShadow_0_18"/>
<feColorMatrix in="SourceAlpha" type="matrix" values="0 0 0 0 0 0 0 0 0 0 0 0 0 0 0 0 0 0 127 0" result="hardAlpha"/>
<feOffset dx="5" dy="4"/>
<feGaussianBlur stdDeviation="2"/>
<feComposite in2="hardAlpha" operator="out"/>
<feColorMatrix type="matrix" values="0 0 0 0 0 0 0 0 0 0 0 0 0 0 0 0 0 0 0.3 0"/>
<feBlend mode="normal" in2="effect1_dropShadow_0_18" result="effect2_dropShadow_0_18"/>
<feBlend mode="normal" in="SourceGraphic" in2="effect2_dropShadow_0_18" result="shape"/>
</filter>
</defs>
</svg>
